<svg xmlns="http://www.w3.org/2000/svg" width="353.992" height="168.456" viewBox="0 0 353.992 168.456">
  <g id="Grupo_4847" data-name="Grupo 4847" transform="translate(-273 -2444.921)">
    <g id="Grupo_4806" data-name="Grupo 4806" transform="translate(273 2444.92)">
      <g id="Grupo_4804" data-name="Grupo 4804" transform="translate(18.879 0)" opacity="0.2">
        <g id="Grupo_4846" data-name="Grupo 4846">
          <path id="Caminho_1820" data-name="Caminho 1820" d="M-869.884,589.4q0,43.488-14.571,63.717t-44.608,20.23q-29.364,0-44.271-21.125T-988.239,589.4q0-43.712,14.569-64.108t44.607-20.4q29.253,0,44.216,21.24T-869.884,589.4Zm-74.31,0q0,27.8,3.477,38.221t11.655,10.424q8.293,0,11.713-10.761t3.419-37.884q0-27.234-3.474-38.164t-11.657-10.927q-8.182,0-11.655,10.534T-944.194,589.4Z" transform="translate(988.238 -504.893)" fill="#6ec2d3"/>
          <path id="Caminho_1821" data-name="Caminho 1821" d="M-771.2,638.659h-18.046v31.719h-43.71V638.659H-898.3v-32.5l68.144-99.636h40.907V605.6H-771.2ZM-832.955,605.6V586.543q0-5.38.391-14.514a93.44,93.44,0,0,1,.617-9.585h-1.233a118.085,118.085,0,0,1-8.63,16.141L-859.966,605.6Z" transform="translate(1028.643 -504.162)" fill="#6ec2d3"/>
        </g>
      </g>
      <g id="Grupo_4805" data-name="Grupo 4805" transform="translate(0 5.201)">
        <path id="Caminho_1822" data-name="Caminho 1822" d="M-971.745,541.851a11.229,11.229,0,0,1-4.233,9.269q-4.232,3.387-11.779,3.385a27.671,27.671,0,0,1-12.3-2.613v-8.556a50.818,50.818,0,0,0,7.442,2.764,22.066,22.066,0,0,0,5.569.8,7.919,7.919,0,0,0,4.649-1.159,3.96,3.96,0,0,0,1.619-3.445,3.807,3.807,0,0,0-.713-2.274,8,8,0,0,0-2.094-1.916,53.946,53.946,0,0,0-5.629-2.94,26.608,26.608,0,0,1-5.971-3.6,13.472,13.472,0,0,1-3.18-4.01,11.437,11.437,0,0,1-1.188-5.348,11.226,11.226,0,0,1,3.907-9.061q3.906-3.3,10.8-3.3a25.511,25.511,0,0,1,6.462.8,44.6,44.6,0,0,1,6.432,2.258l-2.971,7.159a43.482,43.482,0,0,0-5.749-1.99,18.55,18.55,0,0,0-4.471-.565,5.922,5.922,0,0,0-4.01,1.219,4.016,4.016,0,0,0-1.4,3.178,3.929,3.929,0,0,0,.565,2.125,6.2,6.2,0,0,0,1.8,1.754,55.813,55.813,0,0,0,5.838,3.045q6.089,2.911,8.348,5.836A11.4,11.4,0,0,1-971.745,541.851Z" transform="translate(1001.81 -507.866)" fill="#272727"/>
        <path id="Caminho_1823" data-name="Caminho 1823" d="M-959.922,551.338q-8.021,0-12.537-4.426t-4.516-12.536q0-8.348,4.175-12.908t11.54-4.561q7.041,0,10.962,4.011T-946.376,532v4.4h-21.418a8.719,8.719,0,0,0,2.287,6.032,8.052,8.052,0,0,0,6,2.168,24.906,24.906,0,0,0,5.674-.623,28.478,28.478,0,0,0,5.585-1.99v7.01a21.308,21.308,0,0,1-5.08,1.768A32.1,32.1,0,0,1-959.922,551.338Zm-1.278-27.985a5.752,5.752,0,0,0-4.516,1.828,8.462,8.462,0,0,0-1.871,5.185h12.714a7.552,7.552,0,0,0-1.752-5.185A5.937,5.937,0,0,0-961.2,523.353Z" transform="translate(1012.178 -504.699)" fill="#272727"/>
        <path id="Caminho_1824" data-name="Caminho 1824" d="M-932.24,516.907a14.6,14.6,0,0,1,3.059.268l-.683,8.5a10.355,10.355,0,0,0-2.674-.3,9.605,9.605,0,0,0-6.758,2.229,8.054,8.054,0,0,0-2.422,6.239v16.9h-9.06V517.532h6.862l1.336,5.585h.446a12.482,12.482,0,0,1,4.174-4.5A10.3,10.3,0,0,1-932.24,516.907Z" transform="translate(1023.947 -504.699)" fill="#272727"/>
        <path id="Caminho_1825" data-name="Caminho 1825" d="M-909.94,554.528l-1.754-4.514h-.238a13.392,13.392,0,0,1-4.708,4,15.2,15.2,0,0,1-6.313,1.113,10.208,10.208,0,0,1-7.53-2.732q-2.748-2.733-2.748-7.784,0-5.287,3.7-7.8t11.155-2.778l5.763-.178V532.4q0-5.05-5.169-5.051a23.555,23.555,0,0,0-9.358,2.407l-3-6.12a27,27,0,0,1,12.714-3q6.684,0,10.249,2.911t3.565,8.853v22.131Zm-11.972-39.986a2.584,2.584,0,0,0-1.768.787,4.689,4.689,0,0,0-1.233,2.393h-4.426a11.272,11.272,0,0,1,2.451-6.743,7.1,7.1,0,0,1,5.63-2.438,6.165,6.165,0,0,1,2.391.49q1.174.491,2.317,1.07t2.242,1.055a5.431,5.431,0,0,0,2.169.475,2.606,2.606,0,0,0,1.768-.772,4.576,4.576,0,0,0,1.232-2.375h4.427a11.173,11.173,0,0,1-2.481,6.743,7.122,7.122,0,0,1-5.6,2.435,6.141,6.141,0,0,1-2.391-.49q-1.174-.489-2.317-1.07t-2.244-1.07A5.3,5.3,0,0,0-921.912,514.542Zm9.3,24.6-3.505.119A11.241,11.241,0,0,0-922,540.685a4.481,4.481,0,0,0-1.93,3.981q0,3.832,4.4,3.832a6.96,6.96,0,0,0,5.035-1.812,6.364,6.364,0,0,0,1.887-4.813Z" transform="translate(1031.829 -508.483)" fill="#272727"/>
        <path id="Caminho_1826" data-name="Caminho 1826" d="M-875.548,534.079q0,8.111-4.277,12.685t-11.913,4.574a16.669,16.669,0,0,1-8.437-2.093,13.947,13.947,0,0,1-5.614-6.016,20.217,20.217,0,0,1-1.961-9.151q0-8.141,4.248-12.656t11.943-4.516a16.75,16.75,0,0,1,8.436,2.081,13.865,13.865,0,0,1,5.614,5.971A20.007,20.007,0,0,1-875.548,534.079Zm-22.963,0q0,4.93,1.619,7.456a5.79,5.79,0,0,0,5.274,2.525,5.7,5.7,0,0,0,5.213-2.51q1.589-2.509,1.59-7.471,0-4.93-1.6-7.4t-5.258-2.467q-3.626,0-5.229,2.451T-898.511,534.079Z" transform="translate(1043.275 -504.699)" fill="#272727"/>
        <path id="Caminho_1827" data-name="Caminho 1827" d="M-968.528,584.083h-5.229v9h-8.971v-9h-18.538V577.7l19.043-28.044h8.466v27.3h5.229Zm-14.2-7.13v-7.368q0-1.841.148-5.346t.238-4.071h-.238a33.178,33.178,0,0,1-2.643,4.753l-7.962,12.031Z" transform="translate(1001.266 -489.989)" fill="#272727"/>
        <path id="Caminho_1828" data-name="Caminho 1828" d="M-948.177,590.7q-8.019,0-12.536-4.426t-4.516-12.537q0-8.348,4.174-12.908t11.542-4.559q7.041,0,10.962,4.01t3.922,11.081v4.4h-21.42a8.723,8.723,0,0,0,2.288,6.03,8.046,8.046,0,0,0,6,2.17,24.91,24.91,0,0,0,5.674-.625,28.284,28.284,0,0,0,5.585-1.99v7.01a21.175,21.175,0,0,1-5.081,1.768A31.969,31.969,0,0,1-948.177,590.7Zm-1.277-27.985a5.744,5.744,0,0,0-4.516,1.827,8.461,8.461,0,0,0-1.871,5.184h12.714a7.552,7.552,0,0,0-1.752-5.184A5.934,5.934,0,0,0-949.454,562.719Z" transform="translate(1017.455 -487.014)" fill="#272727"/>
        <path id="Caminho_1829" data-name="Caminho 1829" d="M-908.374,590.11h-9.061v-19.4a9.324,9.324,0,0,0-1.277-5.391,4.648,4.648,0,0,0-4.071-1.8q-3.8,0-5.5,2.539t-1.693,8.423V590.11h-9.062V556.9h6.923l1.217,4.249h.506a9.577,9.577,0,0,1,4.174-3.641,14.229,14.229,0,0,1,6.045-1.232q5.793,0,8.794,3.133t3,9.048Z" transform="translate(1029.223 -487.014)" fill="#272727"/>
        <path id="Caminho_1830" data-name="Caminho 1830" d="M-897.327,590.7q-15.506,0-15.507-17.023,0-8.467,4.219-12.937t12.091-4.471a23.037,23.037,0,0,1,10.337,2.258l-2.672,7.01q-2.139-.861-3.981-1.41a12.825,12.825,0,0,0-3.684-.549q-7.071,0-7.071,10.04,0,9.745,7.071,9.745a16.085,16.085,0,0,0,4.842-.7,17.449,17.449,0,0,0,4.456-2.184v7.755a14.609,14.609,0,0,1-4.442,1.93A24.972,24.972,0,0,1-897.327,590.7Z" transform="translate(1040.991 -487.014)" fill="#272727"/>
        <path id="Caminho_1831" data-name="Caminho 1831" d="M-859.046,573.443q0,8.111-4.278,12.685t-11.913,4.575a16.659,16.659,0,0,1-8.437-2.094,13.931,13.931,0,0,1-5.614-6.016,20.214,20.214,0,0,1-1.961-9.15q0-8.139,4.249-12.655t11.942-4.516a16.755,16.755,0,0,1,8.437,2.08,13.882,13.882,0,0,1,5.614,5.971A20.026,20.026,0,0,1-859.046,573.443Zm-22.964,0q0,4.932,1.62,7.458a5.789,5.789,0,0,0,5.272,2.524,5.7,5.7,0,0,0,5.214-2.51q1.587-2.511,1.588-7.472,0-4.93-1.6-7.4t-5.258-2.465q-3.624,0-5.229,2.451T-882.01,573.443Z" transform="translate(1050.688 -487.014)" fill="#272727"/>
        <path id="Caminho_1832" data-name="Caminho 1832" d="M-833.205,590.11h-9.061v-19.4a9.326,9.326,0,0,0-1.277-5.391,4.648,4.648,0,0,0-4.071-1.8q-3.8,0-5.5,2.539t-1.693,8.423V590.11h-9.061V556.9h6.922l1.217,4.249h.506a9.586,9.586,0,0,1,4.174-3.641A14.24,14.24,0,0,1-845,556.273q5.791,0,8.792,3.133t3,9.048Z" transform="translate(1062.991 -487.014)" fill="#272727"/>
        <path id="Caminho_1833" data-name="Caminho 1833" d="M-821.238,585.483a19.661,19.661,0,0,0,5.7-1.039v6.743a20.337,20.337,0,0,1-8.318,1.514q-5.437,0-7.917-2.748t-2.48-8.245V565.7h-4.337v-3.833l4.991-3.03,2.615-7.01h5.792v7.069h9.3v6.8h-9.3V581.71a3.534,3.534,0,0,0,1.084,2.852A4.276,4.276,0,0,0-821.238,585.483Z" transform="translate(1074.345 -489.013)" fill="#272727"/>
        <path id="Caminho_1834" data-name="Caminho 1834" d="M-799.51,556.273a14.613,14.613,0,0,1,3.059.267l-.683,8.5a10.428,10.428,0,0,0-2.674-.3,9.615,9.615,0,0,0-6.759,2.227,8.055,8.055,0,0,0-2.42,6.239v16.9h-9.062V556.9h6.863l1.336,5.585h.446a12.492,12.492,0,0,1,4.174-4.5A10.3,10.3,0,0,1-799.51,556.273Z" transform="translate(1083.571 -487.014)" fill="#272727"/>
        <path id="Caminho_1835" data-name="Caminho 1835" d="M-768.175,573.443q0,8.111-4.278,12.685t-11.913,4.575a16.654,16.654,0,0,1-8.436-2.094,13.934,13.934,0,0,1-5.616-6.016,20.232,20.232,0,0,1-1.959-9.15q0-8.139,4.248-12.655t11.942-4.516a16.752,16.752,0,0,1,8.437,2.08,13.882,13.882,0,0,1,5.614,5.971A20.025,20.025,0,0,1-768.175,573.443Zm-22.963,0q0,4.932,1.619,7.458a5.792,5.792,0,0,0,5.272,2.524,5.7,5.7,0,0,0,5.214-2.51q1.589-2.511,1.59-7.472,0-4.93-1.6-7.4t-5.258-2.465q-3.626,0-5.23,2.451T-791.138,573.443Z" transform="translate(1091.509 -487.014)" fill="#272727"/>
        <path id="Caminho_1836" data-name="Caminho 1836" d="M-749.193,580.248a9.144,9.144,0,0,1-3.551,7.782q-3.55,2.674-10.62,2.674a33.409,33.409,0,0,1-6.179-.49,23.455,23.455,0,0,1-4.782-1.441v-7.487a31.536,31.536,0,0,0,5.688,1.99,23.046,23.046,0,0,0,5.571.8q4.93,0,4.932-2.852a2.385,2.385,0,0,0-.654-1.738,9.485,9.485,0,0,0-2.258-1.516q-1.6-.846-4.278-1.975a26.81,26.81,0,0,1-5.629-2.971,8.328,8.328,0,0,1-2.614-3.133,10.324,10.324,0,0,1-.817-4.353,7.885,7.885,0,0,1,3.432-6.846q3.43-2.422,9.729-2.422a27.612,27.612,0,0,1,11.675,2.614l-2.733,6.536q-2.5-1.07-4.664-1.754a14.665,14.665,0,0,0-4.427-.683q-4.009,0-4.01,2.168a2.548,2.548,0,0,0,1.293,2.109,35.046,35.046,0,0,0,5.659,2.645,26.278,26.278,0,0,1,5.7,2.942A8.68,8.68,0,0,1-750.055,576,9.664,9.664,0,0,1-749.193,580.248Z" transform="translate(1103.186 -487.014)" fill="#272727"/>
      </g>
    </g>
  </g>
</svg>
