<svg id="Camada_1" data-name="Camada 1" xmlns="http://www.w3.org/2000/svg" viewBox="0 0 104.2 83.21"><defs><style>.cls-1{fill:#f4985a;}.cls-2{fill:#fff;}.cls-3{fill:#432918;}.cls-4{fill:#dadada;}.cls-5{fill:#f7c1da;}</style></defs><path class="cls-1" d="M77.52,67a10.8,10.8,0,0,1-7.7,3.51A6.36,6.36,0,0,1,65,68.51c-1.37-1.56-4.59-15.6-5.46-18.92-7,1.46-15.8,2.83-19.5,3.32-1.46,2.73-3.51,10-5.36,11.7a5.89,5.89,0,0,1-4.1,1.17c-2.44,0-7.6-1.08-8.09-5.56C21.37,51.54,44.18,13.32,46.91,12a22.66,22.66,0,0,1,9.56-2.34c2.63,0,5.65.88,6.82,3.12C68.36,21.81,77,53.2,78.11,62.36,78.4,64.12,78.3,66,77.52,67ZM54.22,21.81c-.78.09-4.19,9.75-7.7,17.16A100.15,100.15,0,0,1,57.05,37C56.37,32.14,54.71,21.81,54.22,21.81Z"/><path class="cls-2" d="M74.17,39A14.59,14.59,0,1,1,88.76,24.45,14.6,14.6,0,0,1,74.17,39Z"/><path class="cls-3" d="M74.17,10.76a13.7,13.7,0,1,1-13.7,13.69,13.69,13.69,0,0,1,13.7-13.69m0-1.78A15.47,15.47,0,1,0,89.64,24.45,15.49,15.49,0,0,0,74.17,9Z"/><path class="cls-4" d="M80.62,12.37A13.7,13.7,0,0,1,65.42,35a13.7,13.7,0,1,0,15.2-22.62Z"/><path class="cls-3" d="M73.36,35.63a10.26,10.26,0,0,1-8.16-4l0-.06A13.9,13.9,0,0,1,63,26.49a8.63,8.63,0,0,1-.06-2.13c0-.3,0-.6,0-.91V23.3a12.13,12.13,0,0,1,1.1-3.66,11.66,11.66,0,0,1,12.54-6.17,12.48,12.48,0,0,1,8.69,6.31,1.07,1.07,0,0,1-.44,1.43,1.06,1.06,0,0,1-1.42-.44,10.33,10.33,0,0,0-7.22-5.23,9.29,9.29,0,0,0-7.85,2,9.44,9.44,0,0,0-2.42,3,9.92,9.92,0,0,0-.89,2.94c0,.34,0,.65,0,1a7.37,7.37,0,0,0,0,1.63,11.75,11.75,0,0,0,1.82,4.23,8.33,8.33,0,0,0,10.81,2,7.67,7.67,0,0,0,3.64-5.55,7.32,7.32,0,0,0-1.46-5.4,6.56,6.56,0,0,0-2.41-2,11.85,11.85,0,0,0-2.09-.6,6.29,6.29,0,0,0-7,5.43,6.37,6.37,0,0,0,.43,2.8,5.65,5.65,0,0,0,4.19,3A4.87,4.87,0,0,0,77,28.54a3,3,0,0,0,.6-1l.2-.41a1.87,1.87,0,0,0,.08-1c0-.19,0-.38,0-.56a3.1,3.1,0,0,0-1.55-2.88,4.43,4.43,0,0,0-2.23-.43A2.56,2.56,0,0,0,71.9,25.2a2.24,2.24,0,0,0,1.31,1.42h0a1.12,1.12,0,0,0,.33-.12l.14-.06a.9.9,0,0,0,.24-.12,1.05,1.05,0,0,1-1-1,1.4,1.4,0,0,1,1.37-1.45h.09l.18-.09h.25A1.57,1.57,0,0,1,76.43,25a3.11,3.11,0,0,1-2,3.42,2.43,2.43,0,0,1-2,.18,4.31,4.31,0,0,1-2.61-2.82l0-.16a4.63,4.63,0,0,1,3.87-5.38,6.24,6.24,0,0,1,3.4.56,5.13,5.13,0,0,1,2.84,4.82c0,.14,0,.28,0,.43a3.77,3.77,0,0,1-.29,2l-.19.37a5.19,5.19,0,0,1-1,1.57,7,7,0,0,1-5.68,2.14,7.74,7.74,0,0,1-5.85-4.25l-.06-.14A8.1,8.1,0,0,1,66.33,24a8.37,8.37,0,0,1,9.35-7.24h.07a13.91,13.91,0,0,1,2.52.72,8.75,8.75,0,0,1,3.26,2.64l0,.06a9.4,9.4,0,0,1,1.86,7,9.75,9.75,0,0,1-4.65,7.07A11.08,11.08,0,0,1,73.36,35.63Z"/><path class="cls-2" d="M34.77,34.74A14.59,14.59,0,1,1,49.36,20.16,14.6,14.6,0,0,1,34.77,34.74Z"/><path class="cls-3" d="M34.77,6.46a13.7,13.7,0,1,1-13.7,13.7,13.7,13.7,0,0,1,13.7-13.7m0-1.77A15.47,15.47,0,1,0,50.24,20.16,15.49,15.49,0,0,0,34.77,4.69Z"/><path class="cls-4" d="M41.22,8.07A13.7,13.7,0,0,1,26,30.69,13.7,13.7,0,1,0,41.22,8.07Z"/><path class="cls-3" d="M34,31.34a10.29,10.29,0,0,1-8.16-4l0-.07a13.75,13.75,0,0,1-2.16-5,8.63,8.63,0,0,1-.06-2.13c0-.29,0-.59,0-.91V19a12,12,0,0,1,1.1-3.66A11.67,11.67,0,0,1,37.22,9.18a12.42,12.42,0,0,1,8.7,6.31,1.06,1.06,0,0,1-1.87,1,10.28,10.28,0,0,0-7.21-5.22,9.55,9.55,0,0,0-10.27,5,10.2,10.2,0,0,0-.89,2.95c0,.33,0,.65,0,1a7.27,7.27,0,0,0,0,1.62A11.61,11.61,0,0,0,27.49,26a8.33,8.33,0,0,0,10.81,2,7.67,7.67,0,0,0,3.64-5.56,7.3,7.3,0,0,0-1.46-5.39,6.59,6.59,0,0,0-2.41-2A11,11,0,0,0,36,14.52,6.28,6.28,0,0,0,29,20a6.51,6.51,0,0,0,.43,2.8,5.62,5.62,0,0,0,4.19,3,4.9,4.9,0,0,0,3.94-1.53,3.15,3.15,0,0,0,.6-1l.2-.42a1.87,1.87,0,0,0,.08-1c0-.18,0-.37,0-.56a3.11,3.11,0,0,0-1.55-2.88A4.4,4.4,0,0,0,34.65,18a2.59,2.59,0,0,0-1.7,1,2.55,2.55,0,0,0-.45,1.84,2.22,2.22,0,0,0,1.31,1.42h0a1.12,1.12,0,0,0,.33-.12l.14-.05a1.36,1.36,0,0,0,.24-.13,1,1,0,0,1-1-1.05A1.41,1.41,0,0,1,35,19.53h.09l.18-.09h.25A1.55,1.55,0,0,1,37,20.7a3.1,3.1,0,0,1-2,3.43,2.46,2.46,0,0,1-2,.17,4.3,4.3,0,0,1-2.61-2.81l0-.16a4.65,4.65,0,0,1,.81-3.51,4.75,4.75,0,0,1,3.06-1.88,6.43,6.43,0,0,1,3.4.56,5.13,5.13,0,0,1,2.83,4.82c0,.15,0,.29,0,.43a3.68,3.68,0,0,1-.3,2l-.17.38a5.44,5.44,0,0,1-1,1.57,6.93,6.93,0,0,1-5.68,2.13,7.72,7.72,0,0,1-5.85-4.24l-.06-.14a8.31,8.31,0,0,1-.55-3.82,8.38,8.38,0,0,1,9.35-7.24h.08a13.2,13.2,0,0,1,2.52.73,8.65,8.65,0,0,1,3.26,2.64l0,0a9.4,9.4,0,0,1,1.86,7,9.74,9.74,0,0,1-4.65,7.07A11.09,11.09,0,0,1,34,31.34Zm1.11-11.82Z"/><path class="cls-5" d="M33,74.39A14.67,14.67,0,1,1,35.93,45.2l31.12,3.14a14.67,14.67,0,0,1-2.94,29.19Z"/><path class="cls-3" d="M66.86,50.2A12.8,12.8,0,1,1,64.3,75.67L33.18,72.53a12.8,12.8,0,1,1,2.56-25.47L66.86,50.2m.38-3.72L36.12,43.34A16.54,16.54,0,1,0,32.8,76.25l31.12,3.14a16.54,16.54,0,0,0,3.32-32.91Z"/><path class="cls-2" d="M77.5,61.38a7.12,7.12,0,0,1-3.65-1.3,7.27,7.27,0,0,1-3.85.55,7,7,0,0,1-3.8-1.42,8,8,0,0,1-7.82-.79,8,8,0,0,1-7.82-.79,7,7,0,0,1-4,.63,6.86,6.86,0,0,1-3.8-1.42,7,7,0,0,1-4,.63,6.86,6.86,0,0,1-3.8-1.42,7,7,0,0,1-4,.64,7,7,0,0,1-3.81-1.42,7,7,0,0,1-4,.63l-.3,0a1.86,1.86,0,0,1-1.42-2.69,14.58,14.58,0,0,1,14.41-8h0l.2,0h.22l7.4.75.21,0H44l7.4.75.21,0h.21l7.4.74.21,0h.21l7.37.74.27,0h.24A14.65,14.65,0,0,1,79.73,59.05a1.83,1.83,0,0,1-.36,1.67,1.87,1.87,0,0,1-1.57.69Z"/><path class="cls-3" d="M66.89,50.2c.06.19.11.38.16.58.08-.18.17-.36.26-.53a12.83,12.83,0,0,1,10.62,9.29l-.24,0A4.39,4.39,0,0,1,74.1,57.6a4.44,4.44,0,0,1-3.91,1.17,4.28,4.28,0,0,1-3.73-2.19A4.25,4.25,0,0,1,62.37,58a4.3,4.3,0,0,1-3.73-2.18,4.27,4.27,0,0,1-4.09,1.39A4.27,4.27,0,0,1,50.82,55a4.26,4.26,0,0,1-4.09,1.39A4.27,4.27,0,0,1,43,54.22a4.27,4.27,0,0,1-4.09,1.39,4.25,4.25,0,0,1-3.73-2.18,4.29,4.29,0,0,1-4.09,1.4,4.28,4.28,0,0,1-3.73-2.19A4.24,4.24,0,0,1,23.27,54L23,54a12.8,12.8,0,0,1,12.57-7c.06.19.11.38.16.57.08-.18.17-.35.27-.53l7.39.75c.06.19.11.38.16.57a5.28,5.28,0,0,1,.27-.53l7.39.74c.06.19.11.39.16.58.08-.18.17-.36.26-.53l7.4.74c.06.19.11.38.16.58.08-.18.17-.36.26-.53l7.37.74h0m.37-3.72h0l-7.37-.74-.21,0-.22,0L52.05,45l-.21,0-.22,0-7.39-.75H44a.78.78,0,0,0-.22,0l-7.39-.75h-.23l-.19,0h0a16.45,16.45,0,0,0-16.25,9,3.75,3.75,0,0,0,2.84,5.4l.36,0a9.46,9.46,0,0,0,4-.38,9.57,9.57,0,0,0,3.83,1.17,9.38,9.38,0,0,0,4-.39,9.36,9.36,0,0,0,3.84,1.17,9.24,9.24,0,0,0,4-.38,10.31,10.31,0,0,0,7.82.79,9.52,9.52,0,0,0,3.84,1.17,9.39,9.39,0,0,0,4-.38A9.52,9.52,0,0,0,62,61.7a9.22,9.22,0,0,0,4-.39,9.51,9.51,0,0,0,3.84,1.18,9.66,9.66,0,0,0,3.82-.32,9.49,9.49,0,0,0,3.67,1.07l.37,0a3.73,3.73,0,0,0,3.85-4.72,16.51,16.51,0,0,0-13.72-12l-.13,0h-.11l-.31,0Z"/><path class="cls-2" d="M33,74.39a14.75,14.75,0,0,1-12.37-9.72,1.87,1.87,0,0,1,1.95-2.48h0a7.15,7.15,0,0,1,3.51,1.29A7.22,7.22,0,0,1,30,62.93a7.05,7.05,0,0,1,3.81,1.42,7,7,0,0,1,4-.63,7.05,7.05,0,0,1,3.81,1.42,7,7,0,0,1,4-.63,7,7,0,0,1,3.81,1.42,7,7,0,0,1,4-.63,6.9,6.9,0,0,1,3.81,1.42,7.95,7.95,0,0,1,7.82.79,7,7,0,0,1,4-.64,7.05,7.05,0,0,1,3.81,1.42,6.92,6.92,0,0,1,3.86-.64h0a1.87,1.87,0,0,1,1.42,2.82,14.77,14.77,0,0,1-14.06,7.06Z"/><path class="cls-3" d="M68.86,68.73a4.27,4.27,0,0,1,3.73,2.18,4.22,4.22,0,0,1,4-1.4A12.8,12.8,0,0,1,64.3,75.67L33.18,72.53a12.8,12.8,0,0,1-10.8-8.48A4.33,4.33,0,0,1,25.86,66a4.39,4.39,0,0,1,3.9-1.17A4.27,4.27,0,0,1,33.49,67a4.27,4.27,0,0,1,4.09-1.39,4.27,4.27,0,0,1,3.73,2.18,4.27,4.27,0,0,1,4.09-1.39,4.25,4.25,0,0,1,3.73,2.18,4.27,4.27,0,0,1,4.09-1.39A4.23,4.23,0,0,1,57,69.34,4.3,4.3,0,0,1,61,67.94a4.26,4.26,0,0,1,3.73,2.19,4.28,4.28,0,0,1,4.09-1.4M69.24,65a9.43,9.43,0,0,0-4,.39,10.18,10.18,0,0,0-7.82-.79,9.31,9.31,0,0,0-3.83-1.17,9.44,9.44,0,0,0-4,.38,9.31,9.31,0,0,0-3.83-1.17,9.44,9.44,0,0,0-4,.38A10.3,10.3,0,0,0,34,62.24a9.41,9.41,0,0,0-3.83-1.17,9.66,9.66,0,0,0-3.82.32,9.45,9.45,0,0,0-3.51-1h0a3.74,3.74,0,0,0-3.9,5,16.62,16.62,0,0,0,13.94,11l31.12,3.14a16.62,16.62,0,0,0,15.85-8,3.74,3.74,0,0,0-2.83-5.64h-.06a9.48,9.48,0,0,0-3.81.39A9.46,9.46,0,0,0,69.24,65Z"/></svg>