<svg xmlns="http://www.w3.org/2000/svg" width="280.436" height="181.359" viewBox="0 0 280.436 181.359">
  <g id="Grupo_4848" data-name="Grupo 4848" transform="translate(-273 -3228.319)">
    <g id="Grupo_4811" data-name="Grupo 4811" transform="translate(273 3228.32)">
      <g id="Grupo_4809" data-name="Grupo 4809" transform="translate(16.81 -0.001)" opacity="0.2">
        <g id="Grupo_4808" data-name="Grupo 4808">
          <g id="Grupo_4807" data-name="Grupo 4807">
            <path id="Caminho_1837" data-name="Caminho 1837" d="M-569.638,531.3l-37.783-37.783a3.775,3.775,0,0,0-2.671-1.107h-79.345a15.128,15.128,0,0,0-15.112,15.114V658.658a15.128,15.128,0,0,0,15.114,15.113h105.792a15.128,15.128,0,0,0,15.112-15.114V533.973A3.777,3.777,0,0,0-569.638,531.3Zm-36.675-25.99L-581.43,530.2h-17.327a7.567,7.567,0,0,1-7.556-7.556Zm30.226,153.346a7.566,7.566,0,0,1-7.556,7.556H-689.435a7.566,7.566,0,0,1-7.558-7.556V507.525a7.567,7.567,0,0,1,7.558-7.556h75.565v22.67a15.128,15.128,0,0,0,15.112,15.113h22.67Z" transform="translate(704.549 -492.411)" fill="#bfa3ce"/>
            <path id="Caminho_1838" data-name="Caminho 1838" d="M-624.3,584.59a109.081,109.081,0,0,1-9.036-7.8c-2.878-2.878-5.443-5.667-7.671-8.324,3.475-10.74,5-16.278,5-19.23,0-12.542-4.532-15.114-11.336-15.114-5.169,0-11.334,2.685-11.334,15.475,0,5.639,3.088,12.482,9.21,20.439-1.5,4.571-3.258,9.843-5.236,15.788-.952,2.852-1.985,5.494-3.078,7.936-.888.4-1.752.8-2.585,1.214-3,1.5-5.856,2.852-8.5,4.107-12.066,5.711-20.035,9.49-20.035,16.95,0,5.417,5.885,8.771,11.334,8.771,7.026,0,17.633-9.384,25.382-25.19,8.043-3.172,18.043-5.523,25.935-7,6.324,4.862,13.308,9.516,16.692,9.516,9.368,0,11.334-5.417,11.334-9.959,0-8.933-10.205-8.933-15.112-8.933A89.637,89.637,0,0,0-624.3,584.59Zm-53.269,32.658a5.967,5.967,0,0,1-3.778-1.214c0-2.68,7.988-6.465,15.714-10.124.491-.233.99-.465,1.5-.706C-669.815,613.433-675.428,617.248-677.572,617.248Zm26.448-67.649c0-7.919,2.458-7.919,3.778-7.919,2.672,0,3.778,0,3.778,7.558,0,1.593-1.062,5.578-3.007,11.8C-649.541,556.471-651.123,552.556-651.123,549.6Zm2.9,40.61q.354-.987.685-1.993c1.4-4.207,2.665-7.985,3.79-11.387q2.352,2.589,5.069,5.306c.709.709,2.465,2.3,4.8,4.3C-638.534,587.449-643.489,588.707-648.226,590.21Zm42.442,1.967c0,1.7,0,2.4-3.5,2.423-1.03-.22-3.41-1.623-6.348-3.623,1.067-.117,1.852-.177,2.3-.177C-607.758,590.8-606.176,591.346-605.785,592.177Z" transform="translate(711.576 -473.672)" fill="#bfa3ce"/>
          </g>
        </g>
      </g>
      <g id="Grupo_4810" data-name="Grupo 4810" transform="translate(0 23.291)">
        <path id="Caminho_1839" data-name="Caminho 1839" d="M-697.76,553.842l-10.456-34.074h-.268q.565,10.4.565,13.873v20.2h-8.229V510.409h12.536l10.279,33.213h.178l10.9-33.213h12.536v43.433H-678.3V533.285q0-1.454.045-3.358t.4-10.1h-.268l-11.2,34.015Z" transform="translate(716.148 -507.618)" fill="#272727"/>
        <path id="Caminho_1840" data-name="Caminho 1840" d="M-655.284,550.886l-1.752-4.516h-.238a13.388,13.388,0,0,1-4.709,4,15.2,15.2,0,0,1-6.313,1.115,10.209,10.209,0,0,1-7.532-2.733q-2.748-2.732-2.748-7.784,0-5.287,3.7-7.8t11.155-2.778l5.764-.178v-1.455q0-5.052-5.168-5.051a23.557,23.557,0,0,0-9.359,2.406l-3-6.12a27,27,0,0,1,12.714-3q6.685,0,10.249,2.911t3.565,8.853v22.131Zm-2.674-15.388-3.5.117a11.234,11.234,0,0,0-5.882,1.426,4.479,4.479,0,0,0-1.932,3.981q0,3.832,4.4,3.833a6.956,6.956,0,0,0,5.035-1.813,6.361,6.361,0,0,0,1.887-4.811Z" transform="translate(733.027 -504.661)" fill="#272727"/>
        <path id="Caminho_1841" data-name="Caminho 1841" d="M-636.667,546.242a19.62,19.62,0,0,0,5.7-1.041v6.743a20.317,20.317,0,0,1-8.319,1.516q-5.437,0-7.917-2.748t-2.48-8.245V526.456h-4.337v-3.832l4.99-3.03,2.614-7.011h5.794v7.071h9.3v6.8h-9.3v16.012a3.534,3.534,0,0,0,1.084,2.852A4.273,4.273,0,0,0-636.667,546.242Z" transform="translate(744.059 -506.642)" fill="#272727"/>
        <path id="Caminho_1842" data-name="Caminho 1842" d="M-617.818,551.462q-8.021,0-12.537-4.426t-4.516-12.537q0-8.348,4.174-12.908t11.542-4.559q7.041,0,10.962,4.01t3.922,11.081v4.4H-625.69a8.715,8.715,0,0,0,2.287,6.03,8.047,8.047,0,0,0,6,2.17,24.912,24.912,0,0,0,5.674-.625,28.373,28.373,0,0,0,5.585-1.99v7.01a21.175,21.175,0,0,1-5.081,1.768A31.958,31.958,0,0,1-617.818,551.462Zm-1.278-27.985a5.747,5.747,0,0,0-4.516,1.827,8.457,8.457,0,0,0-1.871,5.184h12.714a7.549,7.549,0,0,0-1.752-5.184A5.932,5.932,0,0,0-619.1,523.477Z" transform="translate(752.659 -504.643)" fill="#272727"/>
        <path id="Caminho_1843" data-name="Caminho 1843" d="M-590.136,517.031a14.637,14.637,0,0,1,3.061.267l-.684,8.5a10.431,10.431,0,0,0-2.674-.3,9.612,9.612,0,0,0-6.758,2.227,8.056,8.056,0,0,0-2.422,6.239v16.9h-9.06V517.654h6.862l1.338,5.585h.445a12.518,12.518,0,0,1,4.174-4.5A10.3,10.3,0,0,1-590.136,517.031Z" transform="translate(764.428 -504.643)" fill="#272727"/>
        <path id="Caminho_1844" data-name="Caminho 1844" d="M-589.876,512.909q0-4.426,4.932-4.426t4.932,4.426a4.315,4.315,0,0,1-1.233,3.283,5.174,5.174,0,0,1-3.7,1.174Q-589.875,517.365-589.876,512.909Zm9.447,41.8h-9.061V521.494h9.061Z" transform="translate(772.872 -508.483)" fill="#272727"/>
        <path id="Caminho_1845" data-name="Caminho 1845" d="M-555.023,550.886l-1.754-4.516h-.238a13.363,13.363,0,0,1-4.709,4,15.2,15.2,0,0,1-6.313,1.115,10.209,10.209,0,0,1-7.53-2.733q-2.748-2.732-2.749-7.784,0-5.287,3.7-7.8t11.155-2.778l5.764-.178v-1.455q0-5.052-5.169-5.051a23.545,23.545,0,0,0-9.358,2.406l-3-6.12a27.008,27.008,0,0,1,12.715-3q6.685,0,10.249,2.911t3.565,8.853v22.131ZM-557.7,535.5l-3.506.117a11.233,11.233,0,0,0-5.882,1.426,4.481,4.481,0,0,0-1.93,3.981q0,3.832,4.4,3.833a6.962,6.962,0,0,0,5.036-1.813,6.361,6.361,0,0,0,1.887-4.811Z" transform="translate(778.065 -504.661)" fill="#272727"/>
        <path id="Caminho_1846" data-name="Caminho 1846" d="M-551.707,512.909q0-4.426,4.932-4.426t4.932,4.426a4.315,4.315,0,0,1-1.233,3.283,5.176,5.176,0,0,1-3.7,1.174Q-551.708,517.365-551.707,512.909Zm9.446,41.8h-9.06V521.494h9.06Z" transform="translate(790.018 -508.483)" fill="#272727"/>
        <path id="Caminho_1847" data-name="Caminho 1847" d="M-514.831,541a9.144,9.144,0,0,1-3.549,7.784q-3.55,2.674-10.621,2.674a33.411,33.411,0,0,1-6.178-.49,23.438,23.438,0,0,1-4.784-1.441v-7.487a31.549,31.549,0,0,0,5.69,1.99,23.038,23.038,0,0,0,5.569.8q4.932,0,4.932-2.852a2.376,2.376,0,0,0-.654-1.738,9.456,9.456,0,0,0-2.258-1.516q-1.6-.846-4.278-1.975a26.882,26.882,0,0,1-5.629-2.971,8.355,8.355,0,0,1-2.614-3.133,10.346,10.346,0,0,1-.817-4.353,7.888,7.888,0,0,1,3.432-6.846q3.43-2.422,9.729-2.422a27.6,27.6,0,0,1,11.675,2.614l-2.733,6.535q-2.493-1.067-4.664-1.752a14.662,14.662,0,0,0-4.426-.683q-4.011,0-4.01,2.168a2.549,2.549,0,0,0,1.291,2.109,35.1,35.1,0,0,0,5.659,2.645,26.4,26.4,0,0,1,5.7,2.941,8.72,8.72,0,0,1,2.674,3.149A9.682,9.682,0,0,1-514.831,541Z" transform="translate(795.267 -504.643)" fill="#272727"/>
        <path id="Caminho_1848" data-name="Caminho 1848" d="M-691.134,593.207h-25.014V549.775h25.014v7.546H-706.94v9.536h14.705V574.4H-706.94v11.2h15.805Z" transform="translate(716.148 -489.933)" fill="#272727"/>
        <path id="Caminho_1849" data-name="Caminho 1849" d="M-663.391,590.233h-9.061v-19.4a9.78,9.78,0,0,0-1.2-5.393,4.236,4.236,0,0,0-3.788-1.8,5.487,5.487,0,0,0-5.05,2.555q-1.574,2.556-1.574,8.407v15.626h-9.061V557.021h6.921l1.217,4.248h.506a9.211,9.211,0,0,1,3.862-3.58,12.539,12.539,0,0,1,5.793-1.293q7.456,0,10.1,4.872h.8a8.964,8.964,0,0,1,3.936-3.594,13.121,13.121,0,0,1,5.868-1.278q5.643,0,8.54,2.9t2.9,9.284v21.656h-9.091v-19.4a9.78,9.78,0,0,0-1.2-5.393,4.236,4.236,0,0,0-3.788-1.8,5.649,5.649,0,0,0-4.975,2.377q-1.65,2.378-1.649,7.545Z" transform="translate(726.489 -486.959)" fill="#272727"/>
        <path id="Caminho_1850" data-name="Caminho 1850" d="M-610.5,563.322q0,7.011-4.381,10.724t-12.463,3.713H-631.3v15.447h-9.21V549.775h13.873q7.9,0,12.017,3.4T-610.5,563.322Zm-20.795,6.891h3.03q4.248,0,6.358-1.678a5.875,5.875,0,0,0,2.109-4.887,6.028,6.028,0,0,0-1.767-4.783q-1.769-1.543-5.542-1.545H-631.3Z" transform="translate(750.127 -489.933)" fill="#272727"/>
        <path id="Caminho_1851" data-name="Caminho 1851" d="M-578.111,571.076q0,10.726-6.106,16.428t-17.631,5.7h-12.3V549.775h13.636q10.634,0,16.517,5.614T-578.111,571.076Zm-9.566.238q0-13.993-12.357-13.992h-4.9V585.6h3.952Q-587.677,585.6-587.677,571.313Z" transform="translate(761.969 -489.933)" fill="#272727"/>
        <path id="Caminho_1852" data-name="Caminho 1852" d="M-574.009,593.207h-9.061V549.775h24.895v7.546h-15.834v11.2h14.734v7.516h-14.734Z" transform="translate(775.929 -489.933)" fill="#272727"/>
      </g>
    </g>
  </g>
</svg>
